
<?xml version="1.0" standalone="no"?>
<!DOCTYPE svg PUBLIC "-//W3C//DTD SVG 20010904//EN"
 "http://www.w3.org/TR/2001/REC-SVG-20010904/DTD/svg10.dtd">
<svg version="1.0" xmlns="http://www.w3.org/2000/svg"
 width="600.000000pt" height="300.000000pt" viewBox="0 0 600.000000 300.000000"
 preserveAspectRatio="xMidYMid meet">
<g transform="translate(0.000000,300.000000) scale(0.100000,-0.100000)"
fill="#000000" stroke="none">
<path d="M3410 2121 c-234 -76 -520 -315 -520 -435 0 -39 37 -83 92 -109 29
-14 87 -41 129 -61 43 -20 97 -55 122 -80 113 -110 74 -213 -118 -309 -38 -20
-92 -43 -120 -52 -68 -23 -160 -31 -170 -15 -11 18 95 114 167 151 72 36 73
37 65 45 -10 11 -167 -78 -217 -123 -77 -69 -66 -113 28 -113 97 0 292 80 381
157 47 40 81 99 81 140 -1 89 -82 170 -255 253 -66 31 -127 65 -134 74 -70 84
145 307 404 419 72 31 106 40 170 44 71 5 83 3 108 -17 40 -32 38 -88 -8 -166
-20 -32 -46 -68 -59 -79 -31 -27 -59 -72 -49 -78 5 -3 35 24 66 60 57 65 98
133 111 185 9 39 -16 94 -53 112 -40 21 -151 20 -221 -3z"/>
<path d="M1382 2094 c-64 -50 -315 -368 -495 -625 l-66 -95 -123 -33 c-143
-37 -399 -119 -413 -132 -5 -6 -5 -13 2 -20 8 -8 25 -8 62 2 28 7 51 16 51 20
0 10 123 53 255 89 61 17 118 33 127 36 10 3 -16 -42 -63 -108 -143 -198 -271
-397 -264 -408 11 -18 25 -11 37 18 17 39 341 512 351 512 1 0 79 16 172 35
94 19 177 35 186 35 13 0 6 -35 -43 -207 -66 -235 -71 -266 -46 -271 22 -4 38
34 38 91 0 23 22 121 48 217 l49 174 34 8 c19 4 70 10 114 14 87 7 94 9 78 25
-8 8 -38 8 -109 0 -53 -6 -99 -10 -101 -8 -2 3 26 103 63 223 127 417 127 417
101 427 -8 3 -28 -6 -45 -19z m-69 -342 l-88 -300 -45 -7 c-67 -10 -284 -53
-304 -61 -11 -4 9 30 45 82 203 287 426 564 439 545 4 -8 12 -1 20 19 35 84
13 -6 -67 -278z"/>
<path d="M1285 1900 c-3 -6 1 -7 9 -4 18 7 21 14 7 14 -6 0 -13 -4 -16 -10z"/>
<path d="M1176 1748 c3 -5 10 -6 15 -3 13 9 11 12 -6 12 -8 0 -12 -4 -9 -9z"/>
<path d="M1019 1507 c6 -8 7 -18 3 -22 -4 -5 -1 -5 6 -1 10 6 10 11 1 22 -6 8
-14 14 -16 14 -3 0 0 -6 6 -13z"/>
<path d="M1797 1899 c-79 -84 -228 -340 -266 -461 -14 -43 -177 -218 -204
-218 -9 0 -21 -9 -27 -20 -9 -16 -8 -22 5 -26 11 -5 43 20 103 79 47 47 88 85
89 83 2 -2 -1 -15 -7 -30 -25 -66 -4 -126 44 -126 30 0 106 51 183 124 35 32
63 54 63 50 -1 -5 -12 -40 -25 -79 -15 -44 -20 -74 -14 -79 13 -14 24 0 47 58
25 64 50 69 103 21 22 -19 48 -35 59 -35 35 0 82 25 145 76 37 30 53 39 42 24
-21 -30 -22 -63 -3 -79 20 -17 62 6 109 58 31 34 37 38 37 21 0 -29 26 -76 45
-84 34 -13 96 -5 190 24 54 17 111 30 127 30 19 0 28 4 25 13 -6 17 -64 12
-144 -13 -36 -11 -89 -23 -118 -26 -45 -6 -56 -3 -74 15 -24 24 -26 50 -6 106
19 51 19 65 0 65 -8 0 -15 -5 -15 -10 0 -7 -6 -7 -19 0 -33 17 -45 12 -132
-62 -102 -86 -165 -128 -195 -128 -12 0 -36 12 -53 26 l-31 26 46 29 c84 54
137 126 113 155 -21 25 -63 15 -129 -31 -35 -25 -65 -43 -67 -41 -10 9 88 229
172 386 47 88 54 110 32 110 -27 0 -121 -192 -217 -443 l-37 -99 -89 -70
c-136 -107 -194 -130 -194 -77 0 11 7 48 16 82 13 50 29 76 89 149 140 166
247 349 249 425 1 52 -19 52 -67 2z m38 -18 c-3 -6 -11 -8 -17 -5 -6 4 -5 9 3
15 16 10 23 4 14 -10z m-31 -78 c-30 -70 -209 -331 -221 -319 -9 9 121 241
185 329 39 54 60 48 36 -10z m207 -330 c-5 -10 -20 -28 -33 -40 -30 -27 -129
-85 -135 -79 -10 9 62 88 102 112 49 29 80 32 66 7z m269 -51 c0 -15 -71 -100
-97 -117 -36 -24 -39 -12 -8 40 30 53 105 107 105 77z m-441 -34 c-30 -44 -29
-43 -29 -31 0 11 38 63 46 63 3 0 -5 -15 -17 -32z"/>
<path d="M3185 1921 c-3 -5 -2 -12 3 -15 5 -3 9 1 9 9 0 17 -3 19 -12 6z"/>
<path d="M3153 1905 c0 -8 3 -13 5 -10 3 3 12 -1 21 -7 10 -8 9 -4 -3 10 -23
26 -23 26 -23 7z"/>
<path d="M1914 1883 c16 -20 36 -23 36 -6 0 4 -3 3 -7 0 -3 -4 -16 1 -27 10
-21 18 -21 18 -2 -4z"/>
<path d="M3089 1823 c-13 -16 -12 -17 4 -4 16 13 21 21 13 21 -2 0 -10 -8 -17
-17z"/>
<path d="M3636 1822 c-3 -5 1 -9 9 -9 8 0 12 4 9 9 -3 4 -7 8 -9 8 -2 0 -6 -4
-9 -8z"/>
<path d="M4739 1716 l-42 -64 -81 -7 c-79 -7 -251 -33 -368 -56 -39 -7 -58
-16 -58 -26 0 -12 10 -13 58 -7 31 3 64 10 73 15 9 5 88 18 175 29 88 11 165
23 172 25 6 2 12 0 12 -4 0 -17 -71 -136 -98 -164 -26 -27 -174 -137 -185
-137 -7 0 -37 60 -37 75 0 17 37 49 41 36 3 -6 10 -7 18 -2 19 12 6 41 -17 41
-29 0 -72 -38 -72 -64 0 -26 -109 -136 -134 -136 -22 0 -20 38 4 102 11 30 16
56 11 61 -5 5 -12 4 -16 -2 -4 -8 -11 -7 -21 3 -16 16 -20 15 -95 -23 -56 -29
-84 -23 -75 14 13 50 -21 25 -54 -41 -19 -36 -51 -85 -72 -107 l-38 -42 7 45
c3 25 14 67 24 93 11 26 19 54 19 62 0 30 -27 14 -47 -29 -40 -82 -144 -176
-163 -146 -9 15 5 71 32 123 19 38 18 74 -2 62 -6 -4 -21 -28 -35 -54 -26 -53
-93 -117 -106 -104 -5 5 -2 34 7 65 9 32 14 64 11 73 -8 19 -37 19 -63 0 -28
-21 -31 -19 -30 21 1 22 -4 39 -11 41 -9 3 -13 -6 -13 -29 0 -18 -5 -40 -10
-48 -8 -13 -11 -11 -16 8 -7 26 -22 29 -31 5 -4 -10 2 -23 16 -35 l23 -18 -37
-62 c-40 -67 -50 -113 -25 -113 14 0 44 52 78 133 13 31 77 90 87 80 3 -2 -1
-30 -7 -62 -19 -90 13 -116 75 -58 l27 26 0 -37 c0 -72 54 -66 136 15 l42 40
-11 -46 c-11 -47 0 -76 28 -76 18 0 85 78 110 126 10 22 20 40 21 42 1 2 11
-2 22 -9 16 -10 26 -10 47 -1 l27 12 -23 -31 c-12 -17 -22 -47 -23 -68 -1 -53
33 -55 87 -4 22 21 38 31 35 23 -10 -29 10 -60 38 -60 34 0 76 31 116 86 32
44 32 45 45 22 19 -36 16 -52 -16 -71 -40 -24 -81 -75 -75 -92 18 -46 134 19
134 74 0 22 15 37 91 91 50 35 93 70 96 77 3 7 9 13 14 13 5 0 0 -17 -10 -39
-30 -58 -101 -251 -101 -273 0 -37 34 -16 43 27 23 106 122 343 180 426 39 56
34 56 345 65 204 7 254 15 175 30 -39 7 -328 -1 -423 -12 -53 -7 -54 -6 -39
12 26 31 58 92 52 98 -16 16 -35 1 -74 -58z m-569 -315 c0 -5 -17 -31 -38 -58
-65 -82 -97 -98 -66 -32 30 61 104 125 104 90z m190 -150 c0 -12 -49 -51 -63
-51 -6 0 2 14 18 30 29 30 45 38 45 21z"/>
<path d="M3554 1746 c1 -8 5 -18 8 -22 4 -3 5 1 4 10 -1 8 -5 18 -8 22 -4 3
-5 -1 -4 -10z"/>
<path d="M1856 1695 c-9 -26 -7 -32 5 -12 6 10 9 21 6 23 -2 3 -7 -2 -11 -11z"/>
<path d="M2885 1591 c-3 -5 -2 -12 3 -15 5 -3 9 1 9 9 0 17 -3 19 -12 6z"/>
<path d="M3723 1554 c-3 -8 0 -21 6 -27 10 -9 16 -8 26 7 8 10 12 23 9 27 -9
15 -34 10 -41 -7z"/>
<path d="M3685 1521 c-3 -5 -2 -12 3 -15 5 -3 9 1 9 9 0 17 -3 19 -12 6z"/>
<path d="M5096 1449 c-9 -13 -16 -27 -16 -32 0 -24 -105 -157 -123 -157 -14 0
0 75 25 132 15 36 18 52 10 60 -8 8 -16 2 -29 -21 -50 -92 -135 -173 -163
-156 -14 9 -4 57 22 108 20 39 17 60 -6 51 -8 -3 -17 -1 -21 5 -31 50 -172
-93 -163 -166 5 -45 39 -42 93 8 42 39 46 41 40 17 -7 -29 15 -58 45 -58 10 0
41 20 68 45 l51 46 -6 -35 c-6 -40 9 -66 37 -66 21 0 79 62 112 119 13 23 28
39 34 37 14 -5 27 65 15 77 -5 5 -16 -2 -25 -14z m-320 -57 c-9 -27 -110 -126
-114 -113 -6 17 34 76 74 111 38 33 50 34 40 2z"/>
<path d="M5255 1441 c-63 -38 -118 -128 -98 -160 17 -27 40 -24 81 13 45 41
52 43 52 16 0 -11 11 -27 25 -36 34 -22 86 -15 238 37 67 22 146 43 176 45 57
5 71 10 71 24 0 29 -78 16 -267 -44 -126 -40 -162 -47 -192 -39 -29 7 -27 46
4 102 14 23 25 47 25 52 0 14 -28 11 -33 -3 -4 -10 -7 -10 -18 0 -18 16 -29
15 -64 -7z m-3 -93 c-34 -33 -66 -57 -70 -53 -4 4 -1 10 6 12 6 3 12 13 12 23
0 9 21 37 46 60 35 32 49 39 57 31 9 -9 -3 -27 -51 -73z"/>
<path d="M3337 1437 c-3 -8 1 -14 8 -14 7 0 11 6 8 14 -3 7 -6 13 -8 13 -2 0
-5 -6 -8 -13z"/>
<path d="M1636 1422 c-3 -5 1 -9 9 -9 8 0 12 4 9 9 -3 4 -7 8 -9 8 -2 0 -6 -4
-9 -8z"/>
<path d="M4411 1397 c-8 -10 -7 -14 2 -14 8 0 14 6 14 14 0 7 -1 13 -2 13 -2
0 -8 -6 -14 -13z"/>
<path d="M5806 1341 c-4 -5 -2 -12 3 -15 5 -4 12 -2 15 3 4 5 2 12 -3 15 -5 4
-12 2 -15 -3z"/>
<path d="M3976 1287 c3 -10 9 -15 12 -12 3 3 0 11 -7 18 -10 9 -11 8 -5 -6z"/>
<path d="M566 1112 c-3 -5 1 -9 9 -9 8 0 12 4 9 9 -3 4 -7 8 -9 8 -2 0 -6 -4
-9 -8z"/>
<path d="M3690 960 c-759 -24 -1573 -63 -2170 -105 -195 -13 -383 -26 -418
-29 -68 -4 -98 -20 -72 -36 20 -13 43 -12 162 5 234 33 1085 83 2183 126 441
17 1646 24 1829 10 89 -7 174 -14 189 -16 42 -7 29 17 -19 34 -31 11 -174 14
-724 16 -377 2 -809 -1 -960 -5z"/>
<path d="M1045 941 c-3 -5 -2 -12 3 -15 5 -3 9 1 9 9 0 17 -3 19 -12 6z"/>
<path d="M483 785 c0 -8 4 -12 9 -9 5 3 6 10 3 15 -9 13 -12 11 -12 -6z"/>
</g>
</svg>
